<svg width="18" height="18" viewBox="0 0 18 18" fill="none" xmlns="http://www.w3.org/2000/svg">
<path d="M6.75 9H3.375V10.125H6.75V9Z" fill="#15A9FF"/>
<path d="M9 6.75H3.375V7.875H9V6.75Z" fill="#15A9FF"/>
<path d="M9 4.5H3.375V5.625H9V4.5Z" fill="#15A9FF"/>
<path d="M7.875 14.625H2.25V3.375H15.75V9H16.875V3.375C16.875 3.07663 16.7565 2.79048 16.5455 2.5795C16.3345 2.36853 16.0484 2.25 15.75 2.25H2.25C1.95163 2.25 1.66548 2.36853 1.4545 2.5795C1.24353 2.79048 1.125 3.07663 1.125 3.375V14.625C1.125 14.9234 1.24353 15.2095 1.4545 15.4205C1.66548 15.6315 1.95163 15.75 2.25 15.75H7.875V14.625Z" fill="#15A9FF"/>
<path d="M12.375 14.3944L10.9181 12.9375L10.125 13.7306L12.375 15.9806L16.875 11.4806L16.0819 10.6875L12.375 14.3944Z" fill="#15A9FF"/>
</svg>
