<svg width="20" height="20" viewBox="0 0 20 20" fill="none" xmlns="http://www.w3.org/2000/svg">
  <path fill-rule="evenodd" clip-rule="evenodd" d="M9.99982 1.25005C7.9225 1.25033 5.91303 1.98967 4.33088 3.3358C2.74873 4.68193 1.69711 6.54705 1.36413 8.59751C1.03116 10.648 1.43855 12.75 2.51344 14.5276C3.58832 16.3052 5.26058 17.6424 7.23107 18.3001C7.66857 18.3813 7.85607 18.1126 7.85607 17.8813C7.85607 17.6501 7.85607 17.1251 7.85607 16.3938C5.42482 16.9188 4.91232 15.2188 4.91232 15.2188C4.74135 14.6831 4.38152 14.2277 3.89982 13.9376C3.10607 13.4001 3.96232 13.4063 3.96232 13.4063C4.23957 13.4455 4.50421 13.5475 4.73601 13.7045C4.96782 13.8616 5.16066 14.0696 5.29982 14.3126C5.54191 14.7468 5.94653 15.0671 6.42471 15.203C6.9029 15.339 7.4155 15.2794 7.84982 15.0376C7.88511 14.5941 8.08061 14.1786 8.39982 13.8688C6.46232 13.6438 4.41857 12.8938 4.41857 9.5438C4.4044 8.67374 4.72683 7.83182 5.31857 7.1938C5.05073 6.44017 5.08205 5.61254 5.40607 4.8813C5.40607 4.8813 6.13732 4.6438 7.81232 5.77505C9.24449 5.3844 10.7551 5.3844 12.1873 5.77505C13.8561 4.6438 14.5873 4.8813 14.5873 4.8813C14.9113 5.61254 14.9427 6.44017 14.6748 7.1938C15.2666 7.83182 15.589 8.67374 15.5748 9.5438C15.5748 12.9063 13.5311 13.6438 11.5811 13.8626C11.79 14.0743 11.951 14.3283 12.0535 14.6075C12.1559 14.8868 12.1973 15.1847 12.1748 15.4813C12.1748 16.6501 12.1748 17.5938 12.1748 17.8813C12.1748 18.1688 12.3311 18.3876 12.7998 18.3001C14.7729 17.6416 16.4469 16.3018 17.5216 14.521C18.5963 12.7401 19.0015 10.6346 18.6644 8.58204C18.3273 6.5295 17.2701 4.66416 15.6822 3.32053C14.0944 1.9769 12.0798 1.24287 9.99982 1.25005Z" fill="#C1E2FF"/>
</svg>
