<svg width="18" height="18" viewBox="0 0 18 18" fill="none" xmlns="http://www.w3.org/2000/svg">
<path d="M12.375 15.75H6.75V14.625H12.375V5.625H3.375V11.25H2.25V5.625C2.25031 5.32673 2.36894 5.04076 2.57985 4.82985C2.79076 4.61894 3.07673 4.50031 3.375 4.5H12.375C12.6733 4.50031 12.9592 4.61894 13.1701 4.82985C13.3811 5.04076 13.4997 5.32673 13.5 5.625V14.625C13.4997 14.9233 13.3811 15.2092 13.1701 15.4201C12.9592 15.6311 12.6733 15.7497 12.375 15.75Z" fill="currentColor"/>
<path d="M15.75 12.375H14.625V11.25H15.75V2.25H6.75V3.375H5.625V2.25C5.62531 1.95173 5.74394 1.66576 5.95485 1.45485C6.16576 1.24394 6.45173 1.12531 6.75 1.125H15.75C16.0483 1.12531 16.3342 1.24394 16.5451 1.45485C16.7561 1.66576 16.8747 1.95173 16.875 2.25V11.25C16.8747 11.5483 16.7561 11.8342 16.5451 12.0451C16.3342 12.2561 16.0483 12.3747 15.75 12.375Z" fill="currentColor"/>
<path d="M5.625 7.875V9H8.20463L1.6875 15.5171L2.48288 16.3125L9 9.79537V12.375H10.125V7.875H5.625Z" fill="currentColor"/>
</svg>
