<svg width="20" height="20" viewBox="0 0 20 20" fill="none" xmlns="http://www.w3.org/2000/svg">
<path d="M18.75 15V13.75H17.4368C17.3562 13.3588 17.2009 12.9868 16.9794 12.6544L17.9106 11.7232L17.0269 10.8394L16.0956 11.7707C15.7632 11.5491 15.3912 11.3938 15 11.3132V10H13.75V11.3132C13.3588 11.3938 12.9868 11.5491 12.6544 11.7706L11.7232 10.8394L10.8394 11.7231L11.7707 12.6544C11.5491 12.9868 11.3938 13.3588 11.3132 13.75H10V15H11.3132C11.3938 15.3912 11.5491 15.7632 11.7706 16.0956L10.8394 17.0268L11.7231 17.9106L12.6544 16.9793C12.9868 17.2009 13.3588 17.3562 13.75 17.4368V18.75H15V17.4368C15.3912 17.3562 15.7632 17.2009 16.0956 16.9794L17.0268 17.9106L17.9106 17.0269L16.9793 16.0956C17.2009 15.7632 17.3562 15.3912 17.4368 15H18.75ZM14.375 16.25C14.0042 16.25 13.6416 16.14 13.3333 15.934C13.025 15.728 12.7846 15.4351 12.6427 15.0925C12.5008 14.7499 12.4637 14.3729 12.536 14.0092C12.6084 13.6455 12.787 13.3114 13.0492 13.0492C13.3114 12.787 13.6455 12.6084 14.0092 12.536C14.3729 12.4637 14.7499 12.5008 15.0925 12.6427C15.4351 12.7846 15.728 13.025 15.934 13.3333C16.14 13.6416 16.25 14.0042 16.25 14.375C16.2495 14.8721 16.0517 15.3487 15.7002 15.7002C15.3487 16.0517 14.8721 16.2495 14.375 16.25Z" fill="#C1E2FF"/>
<path d="M17.5 2.5H2.5C2.16858 2.50033 1.85083 2.63213 1.61648 2.86648C1.38213 3.10083 1.25033 3.41858 1.25 3.75V16.25C1.25038 16.5814 1.3822 16.8991 1.61654 17.1335C1.85087 17.3678 2.1686 17.4996 2.5 17.5H8.75V16.25H2.5V7.5H17.5V9.375H18.75V3.75C18.7496 3.4186 18.6178 3.10087 18.3835 2.86654C18.1491 2.6322 17.8314 2.50038 17.5 2.5ZM17.5 6.25H2.5V3.75H17.5V6.25Z" fill="#C1E2FF"/>
<path d="M12.5 5.625C12.8452 5.625 13.125 5.34518 13.125 5C13.125 4.65482 12.8452 4.375 12.5 4.375C12.1548 4.375 11.875 4.65482 11.875 5C11.875 5.34518 12.1548 5.625 12.5 5.625Z" fill="#C1E2FF"/>
<path d="M14.375 5.625C14.7202 5.625 15 5.34518 15 5C15 4.65482 14.7202 4.375 14.375 4.375C14.0298 4.375 13.75 4.65482 13.75 5C13.75 5.34518 14.0298 5.625 14.375 5.625Z" fill="#C1E2FF"/>
<path d="M16.25 5.625C16.5952 5.625 16.875 5.34518 16.875 5C16.875 4.65482 16.5952 4.375 16.25 4.375C15.9048 4.375 15.625 4.65482 15.625 5C15.625 5.34518 15.9048 5.625 16.25 5.625Z" fill="#C1E2FF"/>
</svg>
