<svg width="18" height="18" viewBox="0 0 18 18" fill="none" xmlns="http://www.w3.org/2000/svg">
<path d="M7.875 9.33188L6.41813 7.875L5.625 8.66812L7.875 10.9181L12.375 6.41812L11.5819 5.625L7.875 9.33188Z" fill="#15A9FF"/>
<path d="M9 16.875L5.52612 15.0227C4.5357 14.4959 3.70746 13.7092 3.13029 12.7473C2.55312 11.7853 2.2488 10.6843 2.25 9.5625V2.25C2.25032 1.95173 2.36894 1.66576 2.57985 1.45485C2.79076 1.24394 3.07673 1.12531 3.375 1.125H14.625C14.9233 1.12531 15.2092 1.24394 15.4202 1.45485C15.6311 1.66576 15.7497 1.95173 15.75 2.25V9.5625C15.7512 10.6843 15.4469 11.7853 14.8697 12.7473C14.2925 13.7092 13.4643 14.4959 12.4739 15.0227L9 16.875ZM3.375 2.25V9.5625C3.37403 10.4804 3.62304 11.3812 4.09531 12.1683C4.56758 12.9554 5.24527 13.599 6.05565 14.03L9 15.6L11.9444 14.03C12.7547 13.599 13.4324 12.9554 13.9047 12.1683C14.377 11.3812 14.626 10.4804 14.625 9.5625V2.25H3.375Z" fill="#15A9FF"/>
</svg>
