<svg width="20" height="20" viewBox="0 0 20 20" fill="none" xmlns="http://www.w3.org/2000/svg">
<path fill-rule="evenodd" clip-rule="evenodd" d="M11.5548 4.05475V8.44525H15.9452V4.05475H11.5548ZM11.0899 3.125C10.8331 3.125 10.625 3.33313 10.625 3.58988V8.91012C10.625 9.16687 10.8331 9.375 11.0899 9.375H16.4101C16.6669 9.375 16.875 9.16687 16.875 8.91012V3.58988C16.875 3.33313 16.6669 3.125 16.4101 3.125H11.0899ZM4.05475 11.5548V15.9452H8.44525V11.5548H4.05475ZM3.58988 10.625C3.33313 10.625 3.125 10.8331 3.125 11.0899V16.4101C3.125 16.6669 3.33313 16.875 3.58988 16.875H8.91012C9.16687 16.875 9.375 16.6669 9.375 16.4101V11.0899C9.375 10.8331 9.16687 10.625 8.91012 10.625H3.58988ZM11.5548 15.9452V11.5548H15.9452V15.9452H11.5548ZM10.625 11.0899C10.625 10.8331 10.8331 10.625 11.0899 10.625H16.4101C16.6669 10.625 16.875 10.8331 16.875 11.0899V16.4101C16.875 16.6669 16.6669 16.875 16.4101 16.875H11.0899C10.8331 16.875 10.625 16.6669 10.625 16.4101V11.0899Z" fill="#C1E2FF"/>
</svg>
