<svg width="18" height="18" viewBox="0 0 18 18" fill="none" xmlns="http://www.w3.org/2000/svg">
<path d="M15.75 9.00006V12.3751H2.25V3.37506H6.1875V2.25006H2.25C1.95163 2.25006 1.66548 2.36859 1.4545 2.57957C1.24353 2.79054 1.125 3.07669 1.125 3.37506V12.3751C1.125 12.6734 1.24353 12.9596 1.4545 13.1706C1.66548 13.3815 1.95163 13.5001 2.25 13.5001H6.75V15.7501H4.5V16.8751H13.5V15.7501H11.25V13.5001H15.75C16.0484 13.5001 16.3345 13.3815 16.5455 13.1706C16.7565 12.9596 16.875 12.6734 16.875 12.3751V9.00006H15.75ZM10.125 15.7501H7.875V13.5001H10.125V15.7501Z" fill="#15A9FF"/>
<path d="M10.125 10.1251H10.1194C9.99814 10.1238 9.88056 10.0834 9.78416 10.0099C9.68775 9.93635 9.61768 9.83366 9.58438 9.71708L8.57565 6.18756H6.1875V5.06256H9C9.12223 5.06256 9.24113 5.10237 9.33872 5.17598C9.4363 5.24958 9.50726 5.35296 9.54084 5.47048L10.1451 7.58487L11.8375 2.08457C11.874 1.97029 11.9456 1.87042 12.0421 1.79914C12.1385 1.72787 12.255 1.68882 12.375 1.68756C12.4935 1.68581 12.6094 1.72227 12.7055 1.79156C12.8016 1.86084 12.8728 1.95925 12.9086 2.0722L13.9054 5.06256H16.875V6.18756H13.5C13.3819 6.18756 13.2669 6.15041 13.1711 6.08138C13.0753 6.01235 13.0037 5.91493 12.9664 5.80292L12.3964 4.09292L10.6625 9.72805C10.6271 9.84299 10.5558 9.94357 10.4591 10.015C10.3624 10.0865 10.2453 10.125 10.125 10.1251Z" fill="#15A9FF"/>
</svg>
