<svg width="1rem" height="1rem" viewBox="0 0 34 34" fill="none" xmlns="http://www.w3.org/2000/svg">
  <rect width="34" height="34" rx="17" fill="#27AE60"/>
  <path fill-rule="evenodd" clip-rule="evenodd" d="M19.1 11.4V14.9H22.6V11.4H19.1ZM18.4 10C18.0134 10 17.7 10.3134 17.7 10.7V15.6C17.7 15.9866 18.0134 16.3 18.4 16.3H23.3C23.6866 16.3 24 15.9866 24 15.6V10.7C24 10.3134 23.6866 10 23.3 10H18.4ZM11.4 19.1V22.6H14.9V19.1H11.4ZM10.7 17.7C10.3134 17.7 10 18.0134 10 18.4V23.3C10 23.6866 10.3134 24 10.7 24H15.6C15.9866 24 16.3 23.6866 16.3 23.3V18.4C16.3 18.0134 15.9866 17.7 15.6 17.7H10.7ZM19.1 22.6V19.1H22.6V22.6H19.1ZM17.7 18.4C17.7 18.0134 18.0134 17.7 18.4 17.7H23.3C23.6866 17.7 24 18.0134 24 18.4V23.3C24 23.6866 23.6866 24 23.3 24H18.4C18.0134 24 17.7 23.6866 17.7 23.3V18.4Z" fill="#F9F9F9"/>
</svg>
